:SAMPLES-PER-SECOND 30
:FULLY-SPECIFIED
:DEGREES
311
root  -1.29457 6.04195 15.6284 -45.6042 -5.32054 1.66547
RightUpLeg  -88.8148 -9.68618 6.48219
RightLeg  88.9365 16.1866 -8.94834
RightFoot  30.7746 3.34691 -8.58769
RightToes  5.82077e-011 -3.18055e-015 -2.98177e-016
Spine  31.6572 1.27963 6.65989
Spine1  13.1726 3.92481 -11.8938
HEad  -14.3026 6.24643 -11.2127
LeftShoulder1  -3.88251e-019 9.70628e-020 -3.87848e-018
LeftArm  46.2499 81.2921 1.89162
LeftForeArm  9.43603 -16.3042 -3.93134
LeftHand  -12.3293 -10.6056 77.7898
RightShoulder  -0.132184 0.0934618 -1.77477
RightArm  -24.0503 25.2922 38.7477
RightForeArm  -46.7607 46.6537 -25.759
RightHand  -6.24862 5.58734 -58.747
LeftUpLeg  -88.6482 8.83147 2.06252
LeftLeg  89.4178 -14.0496 11.8228
LeftFoot  33.1153 -0.564173 1.54831
LeftToes  5.91571e-011 -3.44359e-011 -3.93244e-011
312
root  -1.2717 6.05296 15.6584 -45.3234 -5.2674 1.61334
RightUpLeg  -89.0947 -9.69343 6.41274
RightLeg  88.9037 16.192 -9.13427
RightFoot  30.9137 3.30258 -8.45031
RightToes  5.82077e-011 -3.18055e-015 -2.98177e-016
Spine  31.5338 1.32729 6.65749
Spine1  12.679 3.93879 -12.1911
HEad  -14.0729 6.49478 -9.66201
LeftShoulder1  -3.88251e-019 9.70628e-020 -3.87848e-018
LeftArm  44.7485 81.2285 1.22892
LeftForeArm  10.1582 -15.4273 -3.91731
LeftHand  -12.4842 -10.6083 78.4871
RightShoulder  -0.429574 -1.06633 -4.60145
RightArm  -9.24998 28.2552 36.6835
RightForeArm  -52.4875 45.5623 -24.4044
RightHand  -1.97576 0.0110262 -36.2165
LeftUpLeg  -88.9396 8.63183 1.9456
LeftLeg  89.4261 -14.0505 11.8137
LeftFoot  33.2536 -0.706772 1.87751
LeftToes  5.91571e-011 -3.44359e-011 -3.93244e-011
313
root  -1.24523 6.06388 15.6648 -45.0862 -5.29004 1.46942
RightUpLeg  -89.2649 -9.77417 6.49686
RightLeg  88.8707 16.1831 -9.05417
RightFoot  31.0278 3.35633 -8.55917
RightToes  5.82077e-011 -3.18055e-015 -2.98177e-016
Spine  31.5906 1.35503 6.84639
Spine1  12.228 4.02599 -12.4729
HEad  -14.1569 6.70434 -8.29064
LeftShoulder1  -3.88251e-019 9.70628e-020 -3.87848e-018
LeftArm  42.2598 81.0039 -0.787751
LeftForeArm  11.0355 -14.6328 -3.95565
LeftHand  -12.3419 -10.5968 77.8764
RightShoulder  -0.646659 -2.18838 -7.05108
RightArm  4.37019 30.8244 33.6847
RightForeArm  -52.8324 48.3906 -27.027
RightHand  0.0627094 -4.03177 -5.22971
LeftUpLeg  -89.1114 8.48641 1.93604
LeftLeg  89.5075 -14.0346 11.3617
LeftFoot  33.2052 -0.831142 2.17015
LeftToes  5.91571e-011 -3.44359e-011 -3.93244e-011
314
root  -1.2233 6.06847 15.6436 -44.9256 -5.26539 1.2975
RightUpLeg  -89.331 -9.93399 6.57814
RightLeg  88.8204 16.1626 -8.80154
RightFoot  30.9896 3.43233 -8.75328
RightToes  5.82077e-011 -3.18055e-015 -2.98177e-016
Spine  31.9433 1.30912 7.27122
Spine1  11.6511 4.21455 -13.0137
HEad  -14.7397 7.31121 -7.3308
LeftShoulder1  -3.88251e-019 9.70628e-020 -3.87848e-018
LeftArm  39.7957 80.589 -2.97242
LeftForeArm  11.8548 -13.9476 -3.88551
LeftHand  -12.0839 -10.5812 76.748
RightShoulder  -0.771178 -2.90087 -8.84738
RightArm  12.2202 32.7017 31.2482
RightForeArm  -55.073 54.189 -33.7839
RightHand  1.31145 -0.0413145 25.2529
LeftUpLeg  -89.1547 8.35531 1.96776
LeftLeg  89.553 -14.0048 10.8018
LeftFoot  33.0377 -0.842793 2.20496
LeftToes  5.91571e-011 -3.44359e-011 -3.93244e-011
315
root  -1.21374 6.06834 15.6181 -44.839 -5.11544 1.14626
RightUpLeg  -89.3848 -10.1679 6.5757
RightLeg  88.7755 16.1517 -8.71058
RightFoot  30.7987 3.42973 -8.78654
RightToes  5.82077e-011 -3.18055e-015 -2.98177e-016
Spine  32.2662 1.2935 7.50876
Spine1  11.1736 4.36643 -13.468
HEad  -15.7259 8.54492 -6.99563
LeftShoulder1  -3.88251e-019 9.70628e-020 -3.87848e-018
LeftArm  38.0466 80.2993 -4.44541
LeftForeArm  12.3543 -13.4056 -3.62074
LeftHand  -12.1064 -10.6533 76.5899
RightShoulder  -0.819925 -3.05096 -9.76121
RightArm  13.9818 33.3976 31.3686
RightForeArm  -66.5248 59.358 -41.9402
RightHand  3.42501 2.81014 46.157
LeftUpLeg  -89.1902 8.19536 1.89799
LeftLeg  89.4819 -13.9811 10.6288
LeftFoot  32.9384 -0.828058 2.1749
LeftToes  5.91571e-011 -3.44359e-011 -3.93244e-011
316
root  -1.20752 6.06358 15.6047 -44.9068 -5.04115 1.04591
RightUpLeg  -89.3422 -10.3221 6.5861
RightLeg  88.758 16.1551 -8.82692
RightFoot  30.6127 3.34458 -8.61514
RightToes  5.82077e-011 -3.18055e-015 -2.98177e-016
Spine  32.2779 1.39988 7.50515
Spine1  11.2875 4.49857 -13.5025
HEad  -16.616 10.1434 -7.41643
LeftShoulder1  -3.88251e-019 9.70628e-020 -3.87848e-018
LeftArm  36.5769 80.2133 -5.91675
LeftForeArm  12.4347 -13.1486 -3.44421
LeftHand  -12.4475 -10.8013 77.6231
RightShoulder  -0.805302 -2.75022 -9.63813
RightArm  11.3301 33.8479 34.2314
RightForeArm  -78.1404 60.9353 -44.2533
RightHand  2.03813 -1.07538 49.6423
LeftUpLeg  -89.1991 8.141 1.82608
LeftLeg  89.4321 -13.9833 10.7927
LeftFoot  32.881 -0.88225 2.30528
LeftToes  5.91571e-011 -3.44359e-011 -3.93244e-011
